<svg width="68" height="68" viewBox="0 0 68 68" fill="none" xmlns="http://www.w3.org/2000/svg">
<path d="M44.9671 23.5189H20.8566C19.9372 23.5189 19.4723 24.6346 20.1231 25.2854L35.0398 40.2021C35.3704 40.5327 35.4427 41.0492 35.2051 41.4521L20.1954 67.453C20.0095 67.7733 19.6686 67.9695 19.2967 67.9695H1.03301C0.464856 67.9695 0 67.5047 0 66.9365V1.04055C0 0.472394 0.464856 0.00753784 1.03301 0.00753784H57.3529C58.1484 0.00753784 58.6442 0.86494 58.2517 1.55706L45.8762 23.0024C45.6902 23.3227 45.3493 23.5189 44.9774 23.5189H44.9671Z" fill="#00D47B"/>
<path d="M67.2694 1.04148V66.9271C67.2694 67.4953 66.8665 67.9601 66.2983 67.9601H64.2736C63.9947 67.9601 63.7365 67.8465 63.5402 67.6606L52.2494 56.3697C51.8465 55.9668 51.1957 55.9668 50.7928 56.3697L38.4586 67.6606C38.2623 67.8568 38.0041 67.9601 37.7252 67.9601H28.6966C27.9012 67.9601 27.4054 67.1027 27.7979 66.4106L40.0495 45.1925L52.5696 23.5095C56.5054 16.7743 61.4019 7.24989 65.3376 0.514641C65.8645 -0.394411 67.2797 -0.0225261 67.2797 1.03115L67.2694 1.04148Z" fill="#00D47B"/>
</svg>
